<mxfile host="app.diagrams.net" modified="2024-06-24T19:01:48.612Z" agent="Mozilla/5.0 (X11; Linux x86_64) AppleWebKit/537.36 (KHTML, like Gecko) Chrome/126.0.0.0 Safari/537.36" etag="yf-pzFOc7YjQ2q9SSS4X" version="24.6.2" type="google">
  <diagram name="Página-1" id="NUoJFQHl_rWB9MM-2GTi">
    <mxGraphModel grid="1" page="1" gridSize="10" guides="1" tooltips="1" connect="1" arrows="1" fold="1" pageScale="1" pageWidth="827" pageHeight="1169" math="0" shadow="0">
      <root>
        <mxCell id="0" />
        <mxCell id="1" parent="0" />
        <mxCell id="OwVITxOOy7fSf8gEWfD8-1" value="&lt;span style=&quot;text-wrap: nowrap;&quot;&gt;&amp;lt;&amp;lt;tabla&amp;gt;&amp;gt;&lt;/span&gt;&lt;br style=&quot;text-wrap: nowrap; padding: 0px; margin: 0px;&quot;&gt;&lt;span style=&quot;text-wrap: nowrap;&quot;&gt;tb_proyectos&lt;/span&gt;" style="swimlane;fontStyle=0;childLayout=stackLayout;horizontal=1;startSize=40;horizontalStack=0;resizeParent=1;resizeParentMax=0;resizeLast=0;collapsible=1;marginBottom=0;whiteSpace=wrap;html=1;" vertex="1" parent="1">
          <mxGeometry x="-50" y="355" width="140" height="130" as="geometry" />
        </mxCell>
        <mxCell id="OwVITxOOy7fSf8gEWfD8-2" value="&lt;div&gt;&lt;span style=&quot;text-wrap: nowrap; background-color: initial;&quot;&gt;&amp;lt;&amp;lt;PK&amp;gt;&amp;gt;&lt;/span&gt;&lt;span style=&quot;text-wrap: nowrap; background-color: initial;&quot;&gt;&amp;nbsp;&lt;/span&gt;Id proyecto&lt;/div&gt;&lt;div&gt;&lt;span style=&quot;text-wrap: nowrap;&quot;&gt;&amp;lt;&amp;lt;FK&amp;gt;&amp;gt; Código version&lt;/span&gt;&lt;br&gt;&lt;/div&gt;&lt;div&gt;Nombre&lt;/div&gt;&lt;div&gt;Lider&lt;/div&gt;&lt;div&gt;Estado&lt;/div&gt;&lt;div&gt;Fecha tentativa de fin&lt;/div&gt;" style="text;strokeColor=none;fillColor=none;align=left;verticalAlign=middle;spacingLeft=4;spacingRight=4;overflow=hidden;points=[[0,0.5],[1,0.5]];portConstraint=eastwest;rotatable=0;whiteSpace=wrap;html=1;" vertex="1" parent="OwVITxOOy7fSf8gEWfD8-1">
          <mxGeometry y="40" width="140" height="90" as="geometry" />
        </mxCell>
        <mxCell id="OwVITxOOy7fSf8gEWfD8-3" value="&lt;span style=&quot;text-wrap: nowrap;&quot;&gt;&amp;lt;&amp;lt;tabla&amp;gt;&amp;gt;&lt;/span&gt;&lt;br style=&quot;text-wrap: nowrap; padding: 0px; margin: 0px;&quot;&gt;&lt;span style=&quot;text-wrap: nowrap;&quot;&gt;tb_fases&lt;/span&gt;" style="swimlane;fontStyle=0;childLayout=stackLayout;horizontal=1;startSize=40;horizontalStack=0;resizeParent=1;resizeParentMax=0;resizeLast=0;collapsible=1;marginBottom=0;whiteSpace=wrap;html=1;" vertex="1" parent="1">
          <mxGeometry x="250" y="360" width="140" height="120" as="geometry" />
        </mxCell>
        <mxCell id="OwVITxOOy7fSf8gEWfD8-4" value="&lt;div&gt;&lt;span style=&quot;text-wrap: nowrap; background-color: initial;&quot;&gt;&amp;lt;&amp;lt;PK&amp;gt;&amp;gt;&lt;/span&gt;&lt;span style=&quot;text-wrap: nowrap; background-color: initial;&quot;&gt;&amp;nbsp;Id fase&lt;/span&gt;&lt;/div&gt;&lt;div&gt;&lt;span style=&quot;text-wrap: nowrap; background-color: initial;&quot;&gt;&amp;lt;&amp;lt;FK&amp;gt;&amp;gt;&lt;/span&gt;&lt;span style=&quot;text-wrap: nowrap; background-color: initial;&quot;&gt;&amp;nbsp;Id proyecto&lt;/span&gt;&lt;br&gt;&lt;/div&gt;&lt;div&gt;Nombre&lt;/div&gt;&lt;div&gt;Número&lt;/div&gt;Estado" style="text;strokeColor=none;fillColor=none;align=left;verticalAlign=middle;spacingLeft=4;spacingRight=4;overflow=hidden;points=[[0,0.5],[1,0.5]];portConstraint=eastwest;rotatable=0;whiteSpace=wrap;html=1;" vertex="1" parent="OwVITxOOy7fSf8gEWfD8-3">
          <mxGeometry y="40" width="140" height="80" as="geometry" />
        </mxCell>
        <mxCell id="OwVITxOOy7fSf8gEWfD8-5" value="&lt;span style=&quot;text-wrap: nowrap;&quot;&gt;&amp;lt;&amp;lt;tabla&amp;gt;&amp;gt;&lt;/span&gt;&lt;br style=&quot;text-wrap: nowrap; padding: 0px; margin: 0px;&quot;&gt;&lt;span style=&quot;text-wrap: nowrap;&quot;&gt;tb_iteraciones&lt;/span&gt;" style="swimlane;fontStyle=0;childLayout=stackLayout;horizontal=1;startSize=40;horizontalStack=0;resizeParent=1;resizeParentMax=0;resizeLast=0;collapsible=1;marginBottom=0;whiteSpace=wrap;html=1;" vertex="1" parent="1">
          <mxGeometry x="505" y="435" width="140" height="150" as="geometry" />
        </mxCell>
        <mxCell id="OwVITxOOy7fSf8gEWfD8-6" value="&lt;span style=&quot;text-wrap: nowrap; background-color: initial;&quot;&gt;&amp;lt;&amp;lt;PK&amp;gt;&amp;gt;&lt;/span&gt;&lt;span style=&quot;text-wrap: nowrap; background-color: initial;&quot;&gt;&amp;nbsp;Id iteracion&lt;/span&gt;&lt;div&gt;&lt;span style=&quot;text-wrap: nowrap; background-color: initial;&quot;&gt;&amp;lt;&amp;lt;FK&amp;gt;&amp;gt;&lt;/span&gt;&lt;span style=&quot;text-wrap: nowrap; background-color: initial;&quot;&gt;&amp;nbsp;Id fase&lt;/span&gt;&lt;br&gt;&lt;/div&gt;&lt;div&gt;Entregables&lt;div&gt;Estado&lt;/div&gt;&lt;div&gt;Número&lt;/div&gt;&lt;div&gt;Fecha inicio&lt;/div&gt;&lt;div&gt;Fecha fin&lt;/div&gt;&lt;/div&gt;" style="text;strokeColor=none;fillColor=none;align=left;verticalAlign=middle;spacingLeft=4;spacingRight=4;overflow=hidden;points=[[0,0.5],[1,0.5]];portConstraint=eastwest;rotatable=0;whiteSpace=wrap;html=1;" vertex="1" parent="OwVITxOOy7fSf8gEWfD8-5">
          <mxGeometry y="40" width="140" height="110" as="geometry" />
        </mxCell>
        <mxCell id="OwVITxOOy7fSf8gEWfD8-7" value="&lt;span style=&quot;text-wrap: nowrap;&quot;&gt;&amp;lt;&amp;lt;tabla&amp;gt;&amp;gt;&lt;/span&gt;&lt;br style=&quot;text-wrap: nowrap; padding: 0px; margin: 0px;&quot;&gt;&lt;span style=&quot;text-wrap: nowrap;&quot;&gt;tb_tareas&lt;/span&gt;" style="swimlane;fontStyle=0;childLayout=stackLayout;horizontal=1;startSize=40;horizontalStack=0;resizeParent=1;resizeParentMax=0;resizeLast=0;collapsible=1;marginBottom=0;whiteSpace=wrap;html=1;" vertex="1" parent="1">
          <mxGeometry x="250" y="585" width="140" height="140" as="geometry" />
        </mxCell>
        <mxCell id="OwVITxOOy7fSf8gEWfD8-8" value="&lt;div&gt;&lt;span style=&quot;text-wrap: nowrap; background-color: initial;&quot;&gt;&amp;lt;&amp;lt;PK&amp;gt;&amp;gt;&lt;/span&gt;&lt;span style=&quot;text-wrap: nowrap; background-color: initial;&quot;&gt;&amp;nbsp;Id tarea&lt;/span&gt;&lt;br&gt;&lt;/div&gt;&lt;div&gt;&lt;span style=&quot;text-wrap: nowrap; background-color: initial;&quot;&gt;&amp;lt;&amp;lt;FK&amp;gt;&amp;gt;&lt;/span&gt;&lt;span style=&quot;text-wrap: nowrap; background-color: initial;&quot;&gt;&amp;nbsp;Id proyecto&lt;/span&gt;&lt;span style=&quot;text-wrap: nowrap; background-color: initial;&quot;&gt;&lt;br&gt;&lt;/span&gt;&lt;/div&gt;&lt;div&gt;&lt;span style=&quot;text-wrap: nowrap; background-color: initial;&quot;&gt;&amp;lt;&amp;lt;FK&amp;gt;&amp;gt;&lt;/span&gt;&lt;span style=&quot;text-wrap: nowrap; background-color: initial;&quot;&gt;&amp;nbsp;Id fase&lt;/span&gt;&lt;span style=&quot;text-wrap: nowrap; background-color: initial;&quot;&gt;&lt;br&gt;&lt;/span&gt;&lt;/div&gt;&lt;div&gt;&lt;span style=&quot;text-wrap: nowrap; background-color: initial;&quot;&gt;&amp;lt;&amp;lt;FK&amp;gt;&amp;gt;&lt;/span&gt;&lt;span style=&quot;text-wrap: nowrap; background-color: initial;&quot;&gt;&amp;nbsp;Id iteracion&lt;/span&gt;&lt;br&gt;&lt;/div&gt;Requisitos&lt;div&gt;Encargado&lt;/div&gt;" style="text;strokeColor=none;fillColor=none;align=left;verticalAlign=middle;spacingLeft=4;spacingRight=4;overflow=hidden;points=[[0,0.5],[1,0.5]];portConstraint=eastwest;rotatable=0;whiteSpace=wrap;html=1;" vertex="1" parent="OwVITxOOy7fSf8gEWfD8-7">
          <mxGeometry y="40" width="140" height="100" as="geometry" />
        </mxCell>
        <mxCell id="OwVITxOOy7fSf8gEWfD8-9" value="" style="endArrow=none;html=1;rounded=0;" edge="1" parent="1" source="OwVITxOOy7fSf8gEWfD8-3" target="OwVITxOOy7fSf8gEWfD8-1">
          <mxGeometry width="50" height="50" relative="1" as="geometry">
            <mxPoint x="310" y="550" as="sourcePoint" />
            <mxPoint x="360" y="500" as="targetPoint" />
          </mxGeometry>
        </mxCell>
        <mxCell id="OwVITxOOy7fSf8gEWfD8-10" value="0,..,*" style="edgeLabel;html=1;align=center;verticalAlign=middle;resizable=0;points=[];" vertex="1" connectable="0" parent="OwVITxOOy7fSf8gEWfD8-9">
          <mxGeometry x="-0.706" y="2" relative="1" as="geometry">
            <mxPoint x="8" as="offset" />
          </mxGeometry>
        </mxCell>
        <mxCell id="OwVITxOOy7fSf8gEWfD8-11" value="1" style="edgeLabel;html=1;align=center;verticalAlign=middle;resizable=0;points=[];" vertex="1" connectable="0" parent="OwVITxOOy7fSf8gEWfD8-9">
          <mxGeometry x="0.6266" y="-1" relative="1" as="geometry">
            <mxPoint x="-10" as="offset" />
          </mxGeometry>
        </mxCell>
        <mxCell id="OwVITxOOy7fSf8gEWfD8-12" value="" style="endArrow=none;html=1;rounded=0;" edge="1" parent="1" source="OwVITxOOy7fSf8gEWfD8-5" target="OwVITxOOy7fSf8gEWfD8-3">
          <mxGeometry width="50" height="50" relative="1" as="geometry">
            <mxPoint x="292" y="470" as="sourcePoint" />
            <mxPoint x="344" y="405" as="targetPoint" />
          </mxGeometry>
        </mxCell>
        <mxCell id="OwVITxOOy7fSf8gEWfD8-13" value="1" style="edgeLabel;html=1;align=center;verticalAlign=middle;resizable=0;points=[];" vertex="1" connectable="0" parent="OwVITxOOy7fSf8gEWfD8-12">
          <mxGeometry x="0.823" y="-1" relative="1" as="geometry">
            <mxPoint as="offset" />
          </mxGeometry>
        </mxCell>
        <mxCell id="OwVITxOOy7fSf8gEWfD8-14" value="1,..,*" style="edgeLabel;html=1;align=center;verticalAlign=middle;resizable=0;points=[];" vertex="1" connectable="0" parent="OwVITxOOy7fSf8gEWfD8-12">
          <mxGeometry x="-0.7335" y="1" relative="1" as="geometry">
            <mxPoint as="offset" />
          </mxGeometry>
        </mxCell>
        <mxCell id="OwVITxOOy7fSf8gEWfD8-15" value="" style="endArrow=none;html=1;rounded=0;" edge="1" parent="1" source="OwVITxOOy7fSf8gEWfD8-7" target="OwVITxOOy7fSf8gEWfD8-1">
          <mxGeometry width="50" height="50" relative="1" as="geometry">
            <mxPoint x="214" y="419" as="sourcePoint" />
            <mxPoint x="142" y="420" as="targetPoint" />
          </mxGeometry>
        </mxCell>
        <mxCell id="OwVITxOOy7fSf8gEWfD8-16" value="0,..,*" style="edgeLabel;html=1;align=center;verticalAlign=middle;resizable=0;points=[];" vertex="1" connectable="0" parent="OwVITxOOy7fSf8gEWfD8-15">
          <mxGeometry x="-0.8143" y="-2" relative="1" as="geometry">
            <mxPoint as="offset" />
          </mxGeometry>
        </mxCell>
        <mxCell id="OwVITxOOy7fSf8gEWfD8-17" value="1" style="edgeLabel;html=1;align=center;verticalAlign=middle;resizable=0;points=[];" vertex="1" connectable="0" parent="OwVITxOOy7fSf8gEWfD8-15">
          <mxGeometry x="0.84" y="1" relative="1" as="geometry">
            <mxPoint as="offset" />
          </mxGeometry>
        </mxCell>
        <mxCell id="OwVITxOOy7fSf8gEWfD8-18" value="" style="endArrow=none;html=1;rounded=0;" edge="1" parent="1" source="OwVITxOOy7fSf8gEWfD8-5" target="OwVITxOOy7fSf8gEWfD8-7">
          <mxGeometry width="50" height="50" relative="1" as="geometry">
            <mxPoint x="562" y="470" as="sourcePoint" />
            <mxPoint x="490" y="471" as="targetPoint" />
            <Array as="points" />
          </mxGeometry>
        </mxCell>
        <mxCell id="OwVITxOOy7fSf8gEWfD8-19" value="0,1" style="edgeLabel;html=1;align=center;verticalAlign=middle;resizable=0;points=[];" vertex="1" connectable="0" parent="OwVITxOOy7fSf8gEWfD8-18">
          <mxGeometry x="-0.9412" y="-1" relative="1" as="geometry">
            <mxPoint x="-16" y="11" as="offset" />
          </mxGeometry>
        </mxCell>
        <mxCell id="OwVITxOOy7fSf8gEWfD8-20" value="0,..,*" style="edgeLabel;html=1;align=center;verticalAlign=middle;resizable=0;points=[];" vertex="1" connectable="0" parent="OwVITxOOy7fSf8gEWfD8-18">
          <mxGeometry x="0.9283" y="-1" relative="1" as="geometry">
            <mxPoint x="13" as="offset" />
          </mxGeometry>
        </mxCell>
        <mxCell id="OwVITxOOy7fSf8gEWfD8-21" value="&lt;span style=&quot;text-wrap: nowrap;&quot;&gt;&amp;lt;&amp;lt;tabla&amp;gt;&amp;gt;&lt;/span&gt;&lt;br style=&quot;text-wrap: nowrap; padding: 0px; margin: 0px;&quot;&gt;&lt;span style=&quot;text-wrap: nowrap;&quot;&gt;tb_tickets&lt;/span&gt;" style="swimlane;fontStyle=0;childLayout=stackLayout;horizontal=1;startSize=40;horizontalStack=0;resizeParent=1;resizeParentMax=0;resizeLast=0;collapsible=1;marginBottom=0;whiteSpace=wrap;html=1;" vertex="1" parent="1">
          <mxGeometry x="-310" y="550" width="140" height="210" as="geometry" />
        </mxCell>
        <mxCell id="OwVITxOOy7fSf8gEWfD8-22" value="&lt;span style=&quot;text-wrap: nowrap;&quot;&gt;&amp;lt;&amp;lt;PK&amp;gt;&amp;gt;&amp;nbsp;&lt;/span&gt;Codigo ticket&lt;div&gt;&lt;span style=&quot;text-wrap: nowrap;&quot;&gt;&amp;lt;&amp;lt;FK&amp;gt;&amp;gt; Codigo version&lt;/span&gt;&lt;br&gt;&lt;div&gt;Severidad&lt;/div&gt;&lt;div&gt;Impacto&lt;/div&gt;&lt;div&gt;Tiempo de respuesta&lt;/div&gt;&lt;div&gt;Cliente&lt;/div&gt;&lt;div&gt;&lt;span style=&quot;background-color: initial;&quot;&gt;Problema&lt;/span&gt;&lt;br&gt;&lt;/div&gt;&lt;div&gt;Historia&lt;/div&gt;&lt;div&gt;Responsable&lt;/div&gt;&lt;div&gt;Posibilidad de derivar&lt;/div&gt;&lt;/div&gt;" style="text;strokeColor=none;fillColor=none;align=left;verticalAlign=middle;spacingLeft=4;spacingRight=4;overflow=hidden;points=[[0,0.5],[1,0.5]];portConstraint=eastwest;rotatable=0;whiteSpace=wrap;html=1;" vertex="1" parent="OwVITxOOy7fSf8gEWfD8-21">
          <mxGeometry y="40" width="140" height="170" as="geometry" />
        </mxCell>
        <mxCell id="OwVITxOOy7fSf8gEWfD8-23" value="&lt;span style=&quot;text-wrap: nowrap;&quot;&gt;&amp;lt;&amp;lt;tabla&amp;gt;&amp;gt;&lt;/span&gt;&lt;br style=&quot;text-wrap: nowrap; padding: 0px; margin: 0px;&quot;&gt;&lt;span style=&quot;text-wrap: nowrap;&quot;&gt;tb_reportes&lt;/span&gt;" style="swimlane;fontStyle=0;childLayout=stackLayout;horizontal=1;startSize=40;horizontalStack=0;resizeParent=1;resizeParentMax=0;resizeLast=0;collapsible=1;marginBottom=0;whiteSpace=wrap;html=1;" vertex="1" parent="1">
          <mxGeometry x="-75" y="140" width="190" height="150" as="geometry" />
        </mxCell>
        <mxCell id="OwVITxOOy7fSf8gEWfD8-24" value="&lt;span style=&quot;text-wrap: nowrap;&quot;&gt;&amp;lt;&amp;lt;PK&amp;gt;&amp;gt; Id reporte&lt;br&gt;&lt;/span&gt;&lt;div&gt;&lt;span style=&quot;text-wrap: nowrap; background-color: initial;&quot;&gt;&amp;lt;&amp;lt;PK&amp;gt;&amp;gt;&lt;/span&gt;&lt;span style=&quot;text-wrap: nowrap; background-color: initial;&quot;&gt;&amp;nbsp;Id proyecto&lt;/span&gt;&lt;/div&gt;&lt;div&gt;Estado&lt;div&gt;Tiempos de desarrolo&lt;br&gt;Lider del proyecto&lt;/div&gt;&lt;div&gt;Analisis de costo-riego-beneficio&lt;/div&gt;&lt;/div&gt;" style="text;strokeColor=none;fillColor=none;align=left;verticalAlign=middle;spacingLeft=4;spacingRight=4;overflow=hidden;points=[[0,0.5],[1,0.5]];portConstraint=eastwest;rotatable=0;whiteSpace=wrap;html=1;" vertex="1" parent="OwVITxOOy7fSf8gEWfD8-23">
          <mxGeometry y="40" width="190" height="110" as="geometry" />
        </mxCell>
        <mxCell id="OwVITxOOy7fSf8gEWfD8-25" value="&lt;span style=&quot;text-wrap: nowrap;&quot;&gt;&amp;lt;&amp;lt;tabla&amp;gt;&amp;gt;&lt;/span&gt;&lt;br style=&quot;text-wrap: nowrap; padding: 0px; margin: 0px;&quot;&gt;&lt;span style=&quot;text-wrap: nowrap;&quot;&gt;tb_versiones&lt;/span&gt;" style="swimlane;fontStyle=0;childLayout=stackLayout;horizontal=1;startSize=40;horizontalStack=0;resizeParent=1;resizeParentMax=0;resizeLast=0;collapsible=1;marginBottom=0;whiteSpace=wrap;html=1;" vertex="1" parent="1">
          <mxGeometry x="-310" y="365" width="140" height="110" as="geometry" />
        </mxCell>
        <mxCell id="OwVITxOOy7fSf8gEWfD8-26" value="&lt;div&gt;&lt;span style=&quot;text-wrap: nowrap; background-color: initial;&quot;&gt;&amp;lt;&amp;lt;PK&amp;gt;&amp;gt;&lt;/span&gt;&lt;span style=&quot;text-wrap: nowrap; background-color: initial;&quot;&gt;&amp;nbsp;&lt;/span&gt;Codigo version&lt;/div&gt;&lt;div&gt;&lt;span style=&quot;text-wrap: nowrap;&quot;&gt;&amp;lt;&amp;lt;FK&amp;gt;&amp;gt; Id producto&lt;/span&gt;&lt;br&gt;&lt;/div&gt;Cliente&lt;div&gt;Customización&lt;/div&gt;" style="text;strokeColor=none;fillColor=none;align=left;verticalAlign=middle;spacingLeft=4;spacingRight=4;overflow=hidden;points=[[0,0.5],[1,0.5]];portConstraint=eastwest;rotatable=0;whiteSpace=wrap;html=1;" vertex="1" parent="OwVITxOOy7fSf8gEWfD8-25">
          <mxGeometry y="40" width="140" height="70" as="geometry" />
        </mxCell>
        <mxCell id="OwVITxOOy7fSf8gEWfD8-27" value="&lt;span style=&quot;text-wrap: nowrap;&quot;&gt;&amp;lt;&amp;lt;tabla&amp;gt;&amp;gt;&lt;/span&gt;&lt;br style=&quot;padding: 0px; margin: 0px; text-wrap: nowrap;&quot;&gt;&lt;span style=&quot;text-wrap: nowrap;&quot;&gt;tb_productos&lt;/span&gt;" style="swimlane;fontStyle=0;childLayout=stackLayout;horizontal=1;startSize=40;horizontalStack=0;resizeParent=1;resizeParentMax=0;resizeLast=0;collapsible=1;marginBottom=0;whiteSpace=wrap;html=1;" vertex="1" parent="1">
          <mxGeometry x="-570" y="380" width="140" height="80" as="geometry" />
        </mxCell>
        <mxCell id="OwVITxOOy7fSf8gEWfD8-28" value="&lt;div&gt;&lt;span style=&quot;text-wrap: nowrap;&quot;&gt;&amp;lt;&amp;lt;PK&amp;gt;&amp;gt; Id producto&lt;/span&gt;&lt;br&gt;&lt;/div&gt;Nombre" style="text;strokeColor=none;fillColor=none;align=left;verticalAlign=middle;spacingLeft=4;spacingRight=4;overflow=hidden;points=[[0,0.5],[1,0.5]];portConstraint=eastwest;rotatable=0;whiteSpace=wrap;html=1;" vertex="1" parent="OwVITxOOy7fSf8gEWfD8-27">
          <mxGeometry y="40" width="140" height="40" as="geometry" />
        </mxCell>
        <mxCell id="OwVITxOOy7fSf8gEWfD8-29" value="" style="endArrow=none;html=1;rounded=0;" edge="1" parent="1" source="OwVITxOOy7fSf8gEWfD8-25" target="OwVITxOOy7fSf8gEWfD8-1">
          <mxGeometry width="50" height="50" relative="1" as="geometry">
            <mxPoint x="-140" y="480" as="sourcePoint" />
            <mxPoint x="-90" y="430" as="targetPoint" />
          </mxGeometry>
        </mxCell>
        <mxCell id="OwVITxOOy7fSf8gEWfD8-30" value="1" style="edgeLabel;html=1;align=center;verticalAlign=middle;resizable=0;points=[];" vertex="1" connectable="0" parent="OwVITxOOy7fSf8gEWfD8-29">
          <mxGeometry x="0.7437" y="1" relative="1" as="geometry">
            <mxPoint as="offset" />
          </mxGeometry>
        </mxCell>
        <mxCell id="OwVITxOOy7fSf8gEWfD8-31" value="1" style="edgeLabel;html=1;align=center;verticalAlign=middle;resizable=0;points=[];" vertex="1" connectable="0" parent="OwVITxOOy7fSf8gEWfD8-29">
          <mxGeometry x="-0.7598" relative="1" as="geometry">
            <mxPoint as="offset" />
          </mxGeometry>
        </mxCell>
        <mxCell id="OwVITxOOy7fSf8gEWfD8-32" value="" style="endArrow=none;html=1;rounded=0;" edge="1" parent="1" source="OwVITxOOy7fSf8gEWfD8-27" target="OwVITxOOy7fSf8gEWfD8-25">
          <mxGeometry width="50" height="50" relative="1" as="geometry">
            <mxPoint x="-440" y="472" as="sourcePoint" />
            <mxPoint x="-323" y="470" as="targetPoint" />
          </mxGeometry>
        </mxCell>
        <mxCell id="OwVITxOOy7fSf8gEWfD8-33" value="1,..,*" style="edgeLabel;html=1;align=center;verticalAlign=middle;resizable=0;points=[];" vertex="1" connectable="0" parent="OwVITxOOy7fSf8gEWfD8-32">
          <mxGeometry x="0.7341" relative="1" as="geometry">
            <mxPoint as="offset" />
          </mxGeometry>
        </mxCell>
        <mxCell id="OwVITxOOy7fSf8gEWfD8-34" value="1" style="edgeLabel;html=1;align=center;verticalAlign=middle;resizable=0;points=[];" vertex="1" connectable="0" parent="OwVITxOOy7fSf8gEWfD8-32">
          <mxGeometry x="-0.7824" y="1" relative="1" as="geometry">
            <mxPoint as="offset" />
          </mxGeometry>
        </mxCell>
        <mxCell id="OwVITxOOy7fSf8gEWfD8-35" value="" style="endArrow=none;html=1;rounded=0;" edge="1" parent="1" source="OwVITxOOy7fSf8gEWfD8-23" target="OwVITxOOy7fSf8gEWfD8-1">
          <mxGeometry width="50" height="50" relative="1" as="geometry">
            <mxPoint x="40" y="310" as="sourcePoint" />
            <mxPoint x="-20" y="350" as="targetPoint" />
          </mxGeometry>
        </mxCell>
        <mxCell id="OwVITxOOy7fSf8gEWfD8-36" value="1" style="edgeLabel;html=1;align=center;verticalAlign=middle;resizable=0;points=[];" vertex="1" connectable="0" parent="OwVITxOOy7fSf8gEWfD8-35">
          <mxGeometry x="0.6776" y="2" relative="1" as="geometry">
            <mxPoint as="offset" />
          </mxGeometry>
        </mxCell>
        <mxCell id="OwVITxOOy7fSf8gEWfD8-37" value="1,..,*" style="edgeLabel;html=1;align=center;verticalAlign=middle;resizable=0;points=[];" vertex="1" connectable="0" parent="OwVITxOOy7fSf8gEWfD8-35">
          <mxGeometry x="-0.7022" y="-3" relative="1" as="geometry">
            <mxPoint as="offset" />
          </mxGeometry>
        </mxCell>
        <mxCell id="OwVITxOOy7fSf8gEWfD8-38" value="" style="endArrow=none;html=1;rounded=0;" edge="1" parent="1" source="OwVITxOOy7fSf8gEWfD8-21" target="OwVITxOOy7fSf8gEWfD8-25">
          <mxGeometry width="50" height="50" relative="1" as="geometry">
            <mxPoint x="-130" y="530" as="sourcePoint" />
            <mxPoint x="-210" y="480" as="targetPoint" />
          </mxGeometry>
        </mxCell>
        <mxCell id="OwVITxOOy7fSf8gEWfD8-39" value="1" style="edgeLabel;html=1;align=center;verticalAlign=middle;resizable=0;points=[];" vertex="1" connectable="0" parent="OwVITxOOy7fSf8gEWfD8-38">
          <mxGeometry x="0.7653" y="-2" relative="1" as="geometry">
            <mxPoint as="offset" />
          </mxGeometry>
        </mxCell>
        <mxCell id="OwVITxOOy7fSf8gEWfD8-40" value="0,..,*" style="edgeLabel;html=1;align=center;verticalAlign=middle;resizable=0;points=[];" vertex="1" connectable="0" parent="OwVITxOOy7fSf8gEWfD8-38">
          <mxGeometry x="-0.7707" relative="1" as="geometry">
            <mxPoint as="offset" />
          </mxGeometry>
        </mxCell>
        <mxCell id="OwVITxOOy7fSf8gEWfD8-41" value="&lt;span style=&quot;text-wrap: nowrap;&quot;&gt;&amp;lt;&amp;lt;tabla&amp;gt;&amp;gt;&lt;/span&gt;&lt;br style=&quot;text-wrap: nowrap; padding: 0px; margin: 0px;&quot;&gt;&lt;span style=&quot;text-wrap: nowrap;&quot;&gt;tb_riesgos&lt;/span&gt;" style="swimlane;fontStyle=0;childLayout=stackLayout;horizontal=1;startSize=40;horizontalStack=0;resizeParent=1;resizeParentMax=0;resizeLast=0;collapsible=1;marginBottom=0;whiteSpace=wrap;html=1;" vertex="1" parent="1">
          <mxGeometry x="250" y="180" width="140" height="130" as="geometry" />
        </mxCell>
        <mxCell id="OwVITxOOy7fSf8gEWfD8-42" value="&lt;span style=&quot;text-wrap: nowrap;&quot;&gt;&amp;lt;&amp;lt;PK&amp;gt;&amp;gt; Id riesgo&lt;br&gt;&lt;/span&gt;&lt;div&gt;&lt;span style=&quot;text-wrap: nowrap; background-color: initial;&quot;&gt;&amp;lt;&amp;lt;FK&amp;gt;&amp;gt;&lt;/span&gt;&lt;span style=&quot;text-wrap: nowrap; background-color: initial;&quot;&gt;&amp;nbsp;Id proyecto&lt;/span&gt;&lt;/div&gt;&lt;div&gt;Probabilidad&lt;div&gt;Impacto&lt;/div&gt;&lt;div&gt;Historial&lt;/div&gt;&lt;div&gt;Estado&lt;/div&gt;&lt;/div&gt;" style="text;strokeColor=none;fillColor=none;align=left;verticalAlign=middle;spacingLeft=4;spacingRight=4;overflow=hidden;points=[[0,0.5],[1,0.5]];portConstraint=eastwest;rotatable=0;whiteSpace=wrap;html=1;" vertex="1" parent="OwVITxOOy7fSf8gEWfD8-41">
          <mxGeometry y="40" width="140" height="90" as="geometry" />
        </mxCell>
        <mxCell id="OwVITxOOy7fSf8gEWfD8-43" value="" style="endArrow=none;html=1;rounded=0;" edge="1" parent="1" source="OwVITxOOy7fSf8gEWfD8-1" target="OwVITxOOy7fSf8gEWfD8-41">
          <mxGeometry width="50" height="50" relative="1" as="geometry">
            <mxPoint x="80" y="350" as="sourcePoint" />
            <mxPoint x="246" y="309" as="targetPoint" />
          </mxGeometry>
        </mxCell>
        <mxCell id="OwVITxOOy7fSf8gEWfD8-44" value="1,..,*" style="edgeLabel;html=1;align=center;verticalAlign=middle;resizable=0;points=[];" vertex="1" connectable="0" parent="OwVITxOOy7fSf8gEWfD8-43">
          <mxGeometry x="0.8492" y="1" relative="1" as="geometry">
            <mxPoint as="offset" />
          </mxGeometry>
        </mxCell>
        <mxCell id="OwVITxOOy7fSf8gEWfD8-45" value="1" style="edgeLabel;html=1;align=center;verticalAlign=middle;resizable=0;points=[];" vertex="1" connectable="0" parent="OwVITxOOy7fSf8gEWfD8-43">
          <mxGeometry x="-0.8047" y="-2" relative="1" as="geometry">
            <mxPoint as="offset" />
          </mxGeometry>
        </mxCell>
        <mxCell id="OwVITxOOy7fSf8gEWfD8-53" value="" style="endArrow=none;html=1;rounded=0;" edge="1" parent="1" source="OwVITxOOy7fSf8gEWfD8-3" target="OwVITxOOy7fSf8gEWfD8-7">
          <mxGeometry width="50" height="50" relative="1" as="geometry">
            <mxPoint x="560" y="530" as="sourcePoint" />
            <mxPoint x="440" y="611" as="targetPoint" />
            <Array as="points" />
          </mxGeometry>
        </mxCell>
        <mxCell id="OwVITxOOy7fSf8gEWfD8-54" value="0,1" style="edgeLabel;html=1;align=center;verticalAlign=middle;resizable=0;points=[];" vertex="1" connectable="0" parent="OwVITxOOy7fSf8gEWfD8-53">
          <mxGeometry x="-0.9412" y="-1" relative="1" as="geometry">
            <mxPoint x="-16" y="11" as="offset" />
          </mxGeometry>
        </mxCell>
        <mxCell id="OwVITxOOy7fSf8gEWfD8-55" value="0,...,*" style="edgeLabel;html=1;align=center;verticalAlign=middle;resizable=0;points=[];" vertex="1" connectable="0" parent="OwVITxOOy7fSf8gEWfD8-53">
          <mxGeometry x="0.9283" y="-1" relative="1" as="geometry">
            <mxPoint x="13" y="-8" as="offset" />
          </mxGeometry>
        </mxCell>
        <mxCell id="OwVITxOOy7fSf8gEWfD8-56" value="&lt;span style=&quot;text-wrap: nowrap;&quot;&gt;&amp;lt;&amp;lt;tabla&amp;gt;&amp;gt;&lt;/span&gt;&lt;br style=&quot;text-wrap: nowrap; padding: 0px; margin: 0px;&quot;&gt;&lt;span style=&quot;text-wrap: nowrap;&quot;&gt;tb_riesgos_por_iteracion&lt;/span&gt;" style="swimlane;fontStyle=0;childLayout=stackLayout;horizontal=1;startSize=40;horizontalStack=0;resizeParent=1;resizeParentMax=0;resizeLast=0;collapsible=1;marginBottom=0;whiteSpace=wrap;html=1;" vertex="1" parent="1">
          <mxGeometry x="470" y="190" width="210" height="110" as="geometry" />
        </mxCell>
        <mxCell id="OwVITxOOy7fSf8gEWfD8-57" value="&lt;div&gt;&lt;span style=&quot;text-wrap: nowrap; background-color: initial;&quot;&gt;&amp;lt;&amp;lt;FK&amp;gt;&amp;gt;&amp;nbsp;&lt;/span&gt;&lt;span style=&quot;text-wrap: nowrap; background-color: initial;&quot;&gt;&amp;lt;&amp;lt;PK&amp;gt;&amp;gt;&lt;/span&gt;&lt;span style=&quot;text-wrap: nowrap; background-color: initial;&quot;&gt;&amp;nbsp;&lt;/span&gt;Id riesgo&lt;/div&gt;&lt;div&gt;&lt;span style=&quot;text-wrap: nowrap;&quot;&gt;&amp;lt;&amp;lt;FK&amp;gt;&amp;gt;&lt;/span&gt;&lt;span style=&quot;background-color: initial; text-wrap: nowrap;&quot;&gt;&amp;nbsp;&lt;/span&gt;&lt;span style=&quot;background-color: initial; text-wrap: nowrap;&quot;&gt;&amp;lt;&amp;lt;PK&amp;gt;&amp;gt;&lt;/span&gt;&lt;span style=&quot;text-wrap: nowrap; background-color: initial;&quot;&gt;&amp;nbsp;Id iteracion&lt;/span&gt;&lt;/div&gt;Cliente&lt;div&gt;Customización&lt;/div&gt;" style="text;strokeColor=none;fillColor=none;align=left;verticalAlign=middle;spacingLeft=4;spacingRight=4;overflow=hidden;points=[[0,0.5],[1,0.5]];portConstraint=eastwest;rotatable=0;whiteSpace=wrap;html=1;" vertex="1" parent="OwVITxOOy7fSf8gEWfD8-56">
          <mxGeometry y="40" width="210" height="70" as="geometry" />
        </mxCell>
        <mxCell id="OwVITxOOy7fSf8gEWfD8-58" value="" style="endArrow=none;html=1;rounded=0;" edge="1" parent="1" source="OwVITxOOy7fSf8gEWfD8-56" target="OwVITxOOy7fSf8gEWfD8-5">
          <mxGeometry width="50" height="50" relative="1" as="geometry">
            <mxPoint x="770" y="320" as="sourcePoint" />
            <mxPoint x="650" y="320" as="targetPoint" />
          </mxGeometry>
        </mxCell>
        <mxCell id="OwVITxOOy7fSf8gEWfD8-59" value="1" style="edgeLabel;html=1;align=center;verticalAlign=middle;resizable=0;points=[];" vertex="1" connectable="0" parent="OwVITxOOy7fSf8gEWfD8-58">
          <mxGeometry x="0.823" y="-1" relative="1" as="geometry">
            <mxPoint as="offset" />
          </mxGeometry>
        </mxCell>
        <mxCell id="OwVITxOOy7fSf8gEWfD8-60" value="1,..,*" style="edgeLabel;html=1;align=center;verticalAlign=middle;resizable=0;points=[];" vertex="1" connectable="0" parent="OwVITxOOy7fSf8gEWfD8-58">
          <mxGeometry x="-0.7335" y="1" relative="1" as="geometry">
            <mxPoint as="offset" />
          </mxGeometry>
        </mxCell>
        <mxCell id="OwVITxOOy7fSf8gEWfD8-61" value="" style="endArrow=none;html=1;rounded=0;" edge="1" parent="1" source="OwVITxOOy7fSf8gEWfD8-56" target="OwVITxOOy7fSf8gEWfD8-41">
          <mxGeometry width="50" height="50" relative="1" as="geometry">
            <mxPoint x="594" y="280" as="sourcePoint" />
            <mxPoint x="592" y="355" as="targetPoint" />
          </mxGeometry>
        </mxCell>
        <mxCell id="OwVITxOOy7fSf8gEWfD8-62" value="1" style="edgeLabel;html=1;align=center;verticalAlign=middle;resizable=0;points=[];" vertex="1" connectable="0" parent="OwVITxOOy7fSf8gEWfD8-61">
          <mxGeometry x="0.823" y="-1" relative="1" as="geometry">
            <mxPoint as="offset" />
          </mxGeometry>
        </mxCell>
        <mxCell id="OwVITxOOy7fSf8gEWfD8-63" value="1,..,*" style="edgeLabel;html=1;align=center;verticalAlign=middle;resizable=0;points=[];" vertex="1" connectable="0" parent="OwVITxOOy7fSf8gEWfD8-61">
          <mxGeometry x="-0.7335" y="1" relative="1" as="geometry">
            <mxPoint as="offset" />
          </mxGeometry>
        </mxCell>
        <mxCell id="N6wTbm46ti6GO5lcFF-U-4" value="&lt;span style=&quot;text-wrap: nowrap;&quot;&gt;&amp;lt;&amp;lt;tabla&amp;gt;&amp;gt;&lt;/span&gt;&lt;br style=&quot;text-wrap: nowrap; padding: 0px; margin: 0px;&quot;&gt;&lt;span style=&quot;text-wrap: nowrap;&quot;&gt;tb_tareas_por_ticket&lt;/span&gt;" style="swimlane;fontStyle=0;childLayout=stackLayout;horizontal=1;startSize=40;horizontalStack=0;resizeParent=1;resizeParentMax=0;resizeLast=0;collapsible=1;marginBottom=0;whiteSpace=wrap;html=1;" vertex="1" parent="1">
          <mxGeometry x="-85" y="770" width="210" height="80" as="geometry" />
        </mxCell>
        <mxCell id="N6wTbm46ti6GO5lcFF-U-5" value="&lt;div&gt;&lt;span style=&quot;text-wrap: nowrap; background-color: initial;&quot;&gt;&amp;lt;&amp;lt;FK&amp;gt;&amp;gt;&amp;nbsp;&lt;/span&gt;&lt;span style=&quot;text-wrap: nowrap; background-color: initial;&quot;&gt;&amp;lt;&amp;lt;PK&amp;gt;&amp;gt;&lt;/span&gt;&lt;span style=&quot;text-wrap: nowrap; background-color: initial;&quot;&gt;&amp;nbsp;&lt;/span&gt;Id tarea&lt;/div&gt;&lt;div&gt;&lt;span style=&quot;text-wrap: nowrap;&quot;&gt;&amp;lt;&amp;lt;FK&amp;gt;&amp;gt;&lt;/span&gt;&lt;span style=&quot;background-color: initial; text-wrap: nowrap;&quot;&gt;&amp;nbsp;&lt;/span&gt;&lt;span style=&quot;background-color: initial; text-wrap: nowrap;&quot;&gt;&amp;lt;&amp;lt;PK&amp;gt;&amp;gt;&lt;/span&gt;&lt;span style=&quot;text-wrap: nowrap; background-color: initial;&quot;&gt;&amp;nbsp;Id ticket&lt;/span&gt;&lt;/div&gt;" style="text;strokeColor=none;fillColor=none;align=left;verticalAlign=middle;spacingLeft=4;spacingRight=4;overflow=hidden;points=[[0,0.5],[1,0.5]];portConstraint=eastwest;rotatable=0;whiteSpace=wrap;html=1;" vertex="1" parent="N6wTbm46ti6GO5lcFF-U-4">
          <mxGeometry y="40" width="210" height="40" as="geometry" />
        </mxCell>
        <mxCell id="N6wTbm46ti6GO5lcFF-U-6" value="" style="endArrow=none;html=1;rounded=0;" edge="1" parent="1" source="N6wTbm46ti6GO5lcFF-U-4" target="OwVITxOOy7fSf8gEWfD8-7">
          <mxGeometry width="50" height="50" relative="1" as="geometry">
            <mxPoint x="260" y="612" as="sourcePoint" />
            <mxPoint x="180" y="680" as="targetPoint" />
          </mxGeometry>
        </mxCell>
        <mxCell id="N6wTbm46ti6GO5lcFF-U-7" value="0,..,*" style="edgeLabel;html=1;align=center;verticalAlign=middle;resizable=0;points=[];" connectable="0" vertex="1" parent="N6wTbm46ti6GO5lcFF-U-6">
          <mxGeometry x="-0.8143" y="-2" relative="1" as="geometry">
            <mxPoint as="offset" />
          </mxGeometry>
        </mxCell>
        <mxCell id="N6wTbm46ti6GO5lcFF-U-8" value="1" style="edgeLabel;html=1;align=center;verticalAlign=middle;resizable=0;points=[];" connectable="0" vertex="1" parent="N6wTbm46ti6GO5lcFF-U-6">
          <mxGeometry x="0.84" y="1" relative="1" as="geometry">
            <mxPoint as="offset" />
          </mxGeometry>
        </mxCell>
        <mxCell id="N6wTbm46ti6GO5lcFF-U-10" value="" style="endArrow=none;html=1;rounded=0;" edge="1" parent="1" source="N6wTbm46ti6GO5lcFF-U-4" target="OwVITxOOy7fSf8gEWfD8-21">
          <mxGeometry width="50" height="50" relative="1" as="geometry">
            <mxPoint x="260" y="620" as="sourcePoint" />
            <mxPoint x="-110" y="600" as="targetPoint" />
          </mxGeometry>
        </mxCell>
        <mxCell id="N6wTbm46ti6GO5lcFF-U-11" value="0,..,*" style="edgeLabel;html=1;align=center;verticalAlign=middle;resizable=0;points=[];" connectable="0" vertex="1" parent="N6wTbm46ti6GO5lcFF-U-10">
          <mxGeometry x="-0.8143" y="-2" relative="1" as="geometry">
            <mxPoint as="offset" />
          </mxGeometry>
        </mxCell>
        <mxCell id="N6wTbm46ti6GO5lcFF-U-12" value="1" style="edgeLabel;html=1;align=center;verticalAlign=middle;resizable=0;points=[];" connectable="0" vertex="1" parent="N6wTbm46ti6GO5lcFF-U-10">
          <mxGeometry x="0.84" y="1" relative="1" as="geometry">
            <mxPoint as="offset" />
          </mxGeometry>
        </mxCell>
        <mxCell id="_WqRdjVbezbkY0WKTMPi-1" value="&lt;span style=&quot;text-wrap: nowrap;&quot;&gt;&amp;lt;&amp;lt;tabla&amp;gt;&amp;gt;&lt;/span&gt;&lt;br style=&quot;text-wrap: nowrap; padding: 0px; margin: 0px;&quot;&gt;&lt;span style=&quot;text-wrap: nowrap;&quot;&gt;tb_empleados&lt;/span&gt;" style="swimlane;fontStyle=0;childLayout=stackLayout;horizontal=1;startSize=40;horizontalStack=0;resizeParent=1;resizeParentMax=0;resizeLast=0;collapsible=1;marginBottom=0;whiteSpace=wrap;html=1;" vertex="1" parent="1">
          <mxGeometry x="-50" y="605" width="140" height="100" as="geometry" />
        </mxCell>
        <mxCell id="_WqRdjVbezbkY0WKTMPi-2" value="&lt;div&gt;&lt;span style=&quot;text-wrap: nowrap; background-color: initial;&quot;&gt;&amp;lt;&amp;lt;PK&amp;gt;&amp;gt;&lt;/span&gt;&lt;span style=&quot;text-wrap: nowrap; background-color: initial;&quot;&gt;&amp;nbsp;&lt;/span&gt;Id empleado&lt;/div&gt;&lt;div&gt;&lt;span style=&quot;background-color: initial;&quot;&gt;Nombre&lt;/span&gt;&lt;br&gt;&lt;/div&gt;&lt;div&gt;Apellido&lt;/div&gt;" style="text;strokeColor=none;fillColor=none;align=left;verticalAlign=middle;spacingLeft=4;spacingRight=4;overflow=hidden;points=[[0,0.5],[1,0.5]];portConstraint=eastwest;rotatable=0;whiteSpace=wrap;html=1;" vertex="1" parent="_WqRdjVbezbkY0WKTMPi-1">
          <mxGeometry y="40" width="140" height="60" as="geometry" />
        </mxCell>
        <mxCell id="_WqRdjVbezbkY0WKTMPi-3" value="" style="endArrow=none;html=1;rounded=0;" edge="1" parent="1" source="OwVITxOOy7fSf8gEWfD8-7" target="_WqRdjVbezbkY0WKTMPi-1">
          <mxGeometry width="50" height="50" relative="1" as="geometry">
            <mxPoint x="145" y="639" as="sourcePoint" />
            <mxPoint x="260" y="627" as="targetPoint" />
          </mxGeometry>
        </mxCell>
        <mxCell id="_WqRdjVbezbkY0WKTMPi-4" value="0,..,*" style="edgeLabel;html=1;align=center;verticalAlign=middle;resizable=0;points=[];" connectable="0" vertex="1" parent="_WqRdjVbezbkY0WKTMPi-3">
          <mxGeometry x="-0.8143" y="-2" relative="1" as="geometry">
            <mxPoint as="offset" />
          </mxGeometry>
        </mxCell>
        <mxCell id="_WqRdjVbezbkY0WKTMPi-5" value="1" style="edgeLabel;html=1;align=center;verticalAlign=middle;resizable=0;points=[];" connectable="0" vertex="1" parent="_WqRdjVbezbkY0WKTMPi-3">
          <mxGeometry x="0.84" y="1" relative="1" as="geometry">
            <mxPoint as="offset" />
          </mxGeometry>
        </mxCell>
        <mxCell id="_WqRdjVbezbkY0WKTMPi-6" value="" style="endArrow=none;html=1;rounded=0;" edge="1" parent="1" source="OwVITxOOy7fSf8gEWfD8-21" target="_WqRdjVbezbkY0WKTMPi-1">
          <mxGeometry width="50" height="50" relative="1" as="geometry">
            <mxPoint x="260" y="676" as="sourcePoint" />
            <mxPoint x="103" y="800" as="targetPoint" />
          </mxGeometry>
        </mxCell>
        <mxCell id="_WqRdjVbezbkY0WKTMPi-7" value="0,..,*" style="edgeLabel;html=1;align=center;verticalAlign=middle;resizable=0;points=[];" connectable="0" vertex="1" parent="_WqRdjVbezbkY0WKTMPi-6">
          <mxGeometry x="-0.8143" y="-2" relative="1" as="geometry">
            <mxPoint as="offset" />
          </mxGeometry>
        </mxCell>
        <mxCell id="_WqRdjVbezbkY0WKTMPi-8" value="1" style="edgeLabel;html=1;align=center;verticalAlign=middle;resizable=0;points=[];" connectable="0" vertex="1" parent="_WqRdjVbezbkY0WKTMPi-6">
          <mxGeometry x="0.84" y="1" relative="1" as="geometry">
            <mxPoint as="offset" />
          </mxGeometry>
        </mxCell>
        <mxCell id="dAYJNpooBod93DQFpasz-1" value="" style="endArrow=none;html=1;rounded=0;" edge="1" parent="1" source="OwVITxOOy7fSf8gEWfD8-1" target="_WqRdjVbezbkY0WKTMPi-1">
          <mxGeometry width="50" height="50" relative="1" as="geometry">
            <mxPoint x="260" y="676" as="sourcePoint" />
            <mxPoint x="103" y="800" as="targetPoint" />
          </mxGeometry>
        </mxCell>
        <mxCell id="dAYJNpooBod93DQFpasz-2" value="0,..,*" style="edgeLabel;html=1;align=center;verticalAlign=middle;resizable=0;points=[];" connectable="0" vertex="1" parent="dAYJNpooBod93DQFpasz-1">
          <mxGeometry x="-0.8143" y="-2" relative="1" as="geometry">
            <mxPoint as="offset" />
          </mxGeometry>
        </mxCell>
        <mxCell id="dAYJNpooBod93DQFpasz-3" value="1" style="edgeLabel;html=1;align=center;verticalAlign=middle;resizable=0;points=[];" connectable="0" vertex="1" parent="dAYJNpooBod93DQFpasz-1">
          <mxGeometry x="0.84" y="1" relative="1" as="geometry">
            <mxPoint as="offset" />
          </mxGeometry>
        </mxCell>
      </root>
    </mxGraphModel>
  </diagram>
</mxfile>
